<svg width="22" height="22" viewBox="0 0 22 22" fill="none" xmlns="http://www.w3.org/2000/svg">
<g id="icon/blue heart">
<path id="Shape" fill-rule="evenodd" clip-rule="evenodd" d="M2.53234 3.60801C3.55452 2.53234 4.90836 2 6.26197 2L6.26182 2.00001C7.61543 2.00001 8.96927 2.53237 9.99145 3.60802L10.9995 4.68349L12.0075 3.61813C14.0518 1.46655 17.4224 1.46655 19.4667 3.61813C21.5111 5.76994 21.5111 9.21545 19.4667 11.367C18.1066 12.7983 16.7466 14.2318 15.3867 15.6653C14.0789 17.0438 12.7711 18.4222 11.4631 19.7988C11.3412 19.9273 11.1718 20 10.9945 20C10.8169 20 10.6475 19.9273 10.5256 19.7988V19.799L2.53234 11.3569C0.490459 9.20356 0.487982 5.7596 2.53234 3.60801ZM9.05427 4.49231C8.26964 3.66679 7.26618 3.25626 6.26197 3.25626L6.26165 3.25603C5.25744 3.25603 4.2537 3.66653 3.46935 4.49208C1.90066 6.14265 1.90152 8.8185 3.46935 10.4716L10.9995 18.4215C12.2726 17.0819 13.5445 15.7395 14.8164 14.3971C16.0538 13.0911 17.2912 11.7852 18.5296 10.4819C20.0983 8.83136 20.0985 6.1535 18.5296 4.50242C16.9609 2.85133 14.5142 2.85133 12.9453 4.50242L11.4735 6.06018C11.3516 6.1885 11.1819 6.2614 11.0046 6.2614C10.8273 6.2614 10.6579 6.1885 10.5359 6.06018H10.5362L9.05427 4.49231Z" fill="#C6D8FF"/>
<mask id="mask0_1555_22082" style="mask-type:luminance" maskUnits="userSpaceOnUse" x="1" y="2" width="20" height="18">
<path id="Shape_2" fill-rule="evenodd" clip-rule="evenodd" d="M2.53234 3.60801C3.55452 2.53234 4.90836 2 6.26197 2L6.26182 2.00001C7.61543 2.00001 8.96927 2.53237 9.99145 3.60802L10.9995 4.68349L12.0075 3.61813C14.0518 1.46655 17.4224 1.46655 19.4667 3.61813C21.5111 5.76994 21.5111 9.21545 19.4667 11.367C18.1066 12.7983 16.7466 14.2318 15.3867 15.6653C14.0789 17.0438 12.7711 18.4222 11.4631 19.7988C11.3412 19.9273 11.1718 20 10.9945 20C10.8169 20 10.6475 19.9273 10.5256 19.7988V19.799L2.53234 11.3569C0.490459 9.20356 0.487982 5.7596 2.53234 3.60801ZM9.05427 4.49231C8.26964 3.66679 7.26618 3.25626 6.26197 3.25626L6.26165 3.25603C5.25744 3.25603 4.2537 3.66653 3.46935 4.49208C1.90066 6.14265 1.90152 8.8185 3.46935 10.4716L10.9995 18.4215C12.2726 17.0819 13.5445 15.7395 14.8164 14.3971C16.0538 13.0911 17.2912 11.7852 18.5296 10.4819C20.0983 8.83136 20.0985 6.1535 18.5296 4.50242C16.9609 2.85133 14.5142 2.85133 12.9453 4.50242L11.4735 6.06018C11.3516 6.1885 11.1819 6.2614 11.0046 6.2614C10.8273 6.2614 10.6579 6.1885 10.5359 6.06018H10.5362L9.05427 4.49231Z" fill="white"/>
</mask>
<g mask="url(#mask0_1555_22082)">
</g>
</g>
</svg>
