<svg width="22" height="22" viewBox="0 0 22 22" fill="none" xmlns="http://www.w3.org/2000/svg">
<g id="icon/blue heart copy 2">
<g id="Shape">
<mask id="path-1-inside-1_1555_22094" fill="white">
<path fill-rule="evenodd" clip-rule="evenodd" d="M17.013 16.0709H16.9947C16.4524 16.0709 15.9781 16.276 15.6182 16.6162L15.3165 16.9013L15.2108 17.0814C15.0605 17.3376 14.9671 17.6695 14.9671 18.0355C14.9671 19.1075 15.8522 20 16.9724 20C18.0926 20 18.9776 19.1074 18.9776 18.0355C18.9776 16.9595 18.1147 16.0804 17.013 16.0709ZM13.4701 16.0964L14.3484 16.5753C14.3283 16.6094 14.309 16.6441 14.2905 16.6794C14.284 16.6916 14.2777 16.704 14.2714 16.7164C14.0738 17.1073 13.9671 17.5626 13.9671 18.0355C13.9671 19.6727 15.3128 21 16.9724 21C18.6321 21 19.9776 19.6725 19.9776 18.0355C19.9776 16.3983 18.6544 15.0708 16.9948 15.0708L16.9947 15.0709C16.233 15.0709 15.5512 15.3465 15.0244 15.8049C14.9928 15.8324 14.9618 15.8606 14.9313 15.8894L14.7701 15.8018L8.69642 12.5045C8.71628 12.4653 8.73527 12.4257 8.75337 12.3857C8.91922 12.0188 9.0104 11.6158 9.0104 11.177C9.0104 10.7577 8.9191 10.3386 8.75305 9.96819C8.73504 9.92802 8.71616 9.88843 8.69642 9.84947L14.9541 6.42L15.1556 6.3096C15.1903 6.33489 15.2254 6.35957 15.2611 6.38362C15.7561 6.71731 16.3461 6.92907 16.9947 6.92907C18.6544 6.92907 20 5.60157 20 3.96453C20 2.32734 18.6543 1 16.9947 1C15.335 1 13.9895 2.3275 13.9895 3.96453C13.9895 4.34458 14.0654 4.71631 14.2018 5.05414C14.2727 5.2297 14.3599 5.3961 14.4613 5.54977C14.4828 5.58239 14.505 5.61445 14.5278 5.64589L13.647 6.13102L8.27893 9.08767L8.18075 9.14175C8.14963 9.1085 8.11769 9.07599 8.08496 9.04425C7.55148 8.52683 6.80829 8.21256 6.00527 8.21256C4.34558 8.21256 3 9.54005 3 11.1771C3 12.8143 4.34574 14.1416 6.00527 14.1416C6.80814 14.1416 7.55121 13.8275 8.08467 13.3102C8.1175 13.2784 8.14954 13.2458 8.18075 13.2124L8.28208 13.2677L13.4701 16.0964ZM7.69535 12.2676L7.80446 12.0524C7.9363 11.7923 8.0104 11.5043 8.0104 11.177C8.0104 10.8679 7.93459 10.5584 7.80439 10.3014L7.69571 10.0869L7.45063 9.82507C7.10163 9.45217 6.58119 9.21255 6.00527 9.21255C4.88499 9.21255 4 10.1051 4 11.1771C4 12.2491 4.88508 13.1416 6.00527 13.1416C6.58119 13.1416 7.10163 12.902 7.45062 12.5291L7.69535 12.2676ZM15.561 5.3676L15.3376 5.05925C15.1242 4.76469 14.9895 4.37247 14.9895 3.96453C14.9895 2.89257 15.8745 2 16.9947 2C18.1149 2 19 2.89248 19 3.96453C19 5.03649 18.115 5.92907 16.9947 5.92907C16.5402 5.92907 16.1145 5.7712 15.7447 5.50158L15.561 5.3676ZM18.1029 3.96481C18.1029 3.37945 17.6216 2.88514 16.9947 2.88514C16.3678 2.88514 15.8864 3.37945 15.8864 3.96481C15.8864 4.55017 16.3678 5.04447 16.9947 5.04447C17.6216 5.04447 18.1029 4.55017 18.1029 3.96481ZM19.1029 3.96481C19.1029 2.81434 18.1609 1.88514 16.9947 1.88514C15.8284 1.88514 14.8864 2.81434 14.8864 3.96481C14.8864 5.11528 15.8284 6.04447 16.9947 6.04447C18.1609 6.04447 19.1029 5.11528 19.1029 3.96481ZM4.89687 11.177C4.89687 11.7624 5.3782 12.2567 6.00511 12.2567C6.63201 12.2567 7.11334 11.7624 7.11334 11.177C7.11334 10.5917 6.63201 10.0974 6.00511 10.0974C5.3782 10.0974 4.89687 10.5917 4.89687 11.177ZM3.89687 11.177C3.89687 12.3275 4.83883 13.2567 6.00511 13.2567C7.17138 13.2567 8.11334 12.3275 8.11334 11.177C8.11334 10.0266 7.17138 9.09738 6.00511 9.09738C4.83883 9.09738 3.89687 10.0266 3.89687 11.177ZM15.8864 18.0354C15.8864 18.6208 16.3678 19.1151 16.9947 19.1151C17.6216 19.1151 18.1029 18.6208 18.1029 18.0354C18.1029 17.45 17.6216 16.9557 16.9947 16.9557C16.3678 16.9557 15.8864 17.45 15.8864 18.0354ZM14.8864 18.0354C14.8864 19.1859 15.8284 20.1151 16.9947 20.1151C18.1609 20.1151 19.1029 19.1859 19.1029 18.0354C19.1029 16.8849 18.1609 15.9557 16.9947 15.9557C15.8284 15.9557 14.8864 16.8849 14.8864 18.0354Z"/>
</mask>
<path d="M17.013 16.0709L17.0217 15.0709H17.013V16.0709ZM15.6182 16.6162L14.9313 15.8894L15.6182 16.6162ZM15.3165 16.9013L14.6296 16.1746L14.5261 16.2724L14.454 16.3952L15.3165 16.9013ZM15.2108 17.0814L16.0733 17.5875L15.2108 17.0814ZM13.4701 16.0964L13.9488 15.2184L13.4701 16.0964ZM14.3484 16.5753L15.2108 17.0814L15.7332 16.1913L14.8271 15.6973L14.3484 16.5753ZM14.2905 16.6794L13.4054 16.214L13.4054 16.214L14.2905 16.6794ZM14.2714 16.7164L15.1639 17.1675L15.1639 17.1675L14.2714 16.7164ZM16.9948 15.0708V14.0708H16.6472L16.3746 14.2863L16.9948 15.0708ZM16.9947 15.0709V16.0709H17.3422L17.6148 15.8554L16.9947 15.0709ZM15.0244 15.8049L15.6809 16.5593L15.6809 16.5593L15.0244 15.8049ZM14.9313 15.8894L14.4542 16.7682L15.0913 17.1141L15.6182 16.6162L14.9313 15.8894ZM14.7701 15.8018L15.2472 14.923L15.2472 14.923L14.7701 15.8018ZM8.69642 12.5045L7.80446 12.0524L7.36494 12.9195L8.2193 13.3833L8.69642 12.5045ZM8.75337 12.3857L9.66457 12.7976L9.66457 12.7976L8.75337 12.3857ZM8.75305 9.96819L7.84052 10.3772L7.84053 10.3772L8.75305 9.96819ZM8.69642 9.84947L8.21583 8.97253L7.36682 9.43782L7.80439 10.3014L8.69642 9.84947ZM14.9541 6.42L14.4735 5.54306L14.9541 6.42ZM15.1556 6.3096L15.7447 5.50158L15.2317 5.12754L14.675 5.43266L15.1556 6.3096ZM15.2611 6.38362L14.7022 7.21281L14.7022 7.21281L15.2611 6.38362ZM14.2018 5.05414L13.2746 5.42856L13.2746 5.42857L14.2018 5.05414ZM14.4613 5.54977L13.6266 6.1004L13.6266 6.10041L14.4613 5.54977ZM14.5278 5.64589L15.0102 6.52182L16.0016 5.9758L15.3376 5.05925L14.5278 5.64589ZM13.647 6.13102L13.1645 5.2551V5.2551L13.647 6.13102ZM8.27893 9.08767L8.76138 9.9636L8.76138 9.9636L8.27893 9.08767ZM8.18075 9.14175L7.45062 9.82507L7.98202 10.3929L8.66319 10.0177L8.18075 9.14175ZM8.08496 9.04425L7.38874 9.76208L7.38874 9.76208L8.08496 9.04425ZM8.08467 13.3102L7.38855 12.5923H7.38855L8.08467 13.3102ZM8.18075 13.2124L8.65945 12.3345L7.97968 11.9638L7.45063 12.5291L8.18075 13.2124ZM8.28208 13.2677L8.76079 12.3897L8.76078 12.3897L8.28208 13.2677ZM7.80446 12.0524L8.69642 12.5045L8.69642 12.5045L7.80446 12.0524ZM7.69535 12.2676L8.42547 12.9509L8.52287 12.8469L8.58731 12.7197L7.69535 12.2676ZM7.80439 10.3014L6.91235 10.7534L6.91235 10.7534L7.80439 10.3014ZM7.69571 10.0869L8.58774 9.63497L8.52328 9.50775L8.42583 9.40362L7.69571 10.0869ZM7.45063 9.82507L6.7205 10.5084H6.7205L7.45063 9.82507ZM7.45062 12.5291L6.7205 11.8458H6.7205L7.45062 12.5291ZM15.561 5.3676L14.7511 5.95424L14.844 6.08239L14.9718 6.17562L15.561 5.3676ZM15.3376 5.05925L14.5278 5.64589L14.5278 5.64589L15.3376 5.05925ZM15.7447 5.50158L16.3339 4.69356V4.69356L15.7447 5.50158ZM16.9947 17.0709H17.013V15.0709H16.9947V17.0709ZM16.3051 17.3429C16.4863 17.1717 16.7173 17.0709 16.9947 17.0709V15.0709C16.1875 15.0709 15.4699 15.3804 14.9313 15.8894L16.3051 17.3429ZM16.0034 17.6281L16.3051 17.3429L14.9313 15.8894L14.6296 16.1746L16.0034 17.6281ZM16.0733 17.5875L16.1789 17.4075L14.454 16.3952L14.3484 16.5753L16.0733 17.5875ZM15.9671 18.0355C15.9671 17.8348 16.0192 17.6797 16.0733 17.5875L14.3484 16.5753C14.1017 16.9955 13.9671 17.5043 13.9671 18.0355H15.9671ZM16.9724 19C16.3935 19 15.9671 18.5443 15.9671 18.0355H13.9671C13.9671 19.6707 15.3109 21 16.9724 21V19ZM17.9776 18.0355C17.9776 18.5443 17.5513 19 16.9724 19V21C18.634 21 19.9776 19.6706 19.9776 18.0355H17.9776ZM17.0043 17.0708C17.56 17.0757 17.9776 17.5112 17.9776 18.0355H19.9776C19.9776 16.4078 18.6695 15.0852 17.0217 15.0709L17.0043 17.0708ZM12.9914 16.9744L13.8696 17.4532L14.8271 15.6973L13.9488 15.2184L12.9914 16.9744ZM13.4859 16.0691C13.4579 16.1168 13.4311 16.1651 13.4054 16.214L15.1756 17.1447C15.187 17.1231 15.1987 17.102 15.2108 17.0814L13.4859 16.0691ZM13.4054 16.214C13.3964 16.231 13.3876 16.2481 13.3789 16.2653L15.1639 17.1675C15.1677 17.1599 15.1717 17.1523 15.1756 17.1447L13.4054 16.214ZM13.379 16.2653C13.1067 16.8038 12.9671 17.4147 12.9671 18.0355H14.9671C14.9671 17.7104 15.0409 17.4108 15.1639 17.1675L13.379 16.2653ZM12.9671 18.0355C12.9671 20.2378 14.7735 22 16.9724 22V20C15.8522 20 14.9671 19.1075 14.9671 18.0355H12.9671ZM16.9724 22C19.1715 22 20.9776 20.2376 20.9776 18.0355H18.9776C18.9776 19.1074 18.0926 20 16.9724 20V22ZM20.9776 18.0355C20.9776 15.8429 19.2037 14.0708 16.9948 14.0708V16.0708C18.1052 16.0708 18.9776 16.9536 18.9776 18.0355H20.9776ZM16.3746 14.2863L16.3745 14.2864L17.6148 15.8554L17.6149 15.8553L16.3746 14.2863ZM16.9947 14.0709C15.9836 14.0709 15.0705 14.4391 14.368 15.0506L15.6809 16.5593C16.0318 16.2539 16.4823 16.0709 16.9947 16.0709V14.0709ZM14.368 15.0506C14.326 15.0871 14.2848 15.1245 14.2444 15.1626L15.6182 16.6162C15.6388 16.5967 15.6597 16.5778 15.6809 16.5593L14.368 15.0506ZM15.4084 15.0106L15.2472 14.923L14.2929 16.6807L14.4542 16.7682L15.4084 15.0106ZM15.2472 14.923L9.17354 11.6256L8.2193 13.3833L14.2929 16.6807L15.2472 14.923ZM9.58838 12.9566C9.61489 12.9043 9.6403 12.8513 9.66457 12.7976L7.84217 11.9737C7.83024 12.0001 7.81767 12.0263 7.80446 12.0524L9.58838 12.9566ZM9.66457 12.7976C9.88868 12.3019 10.0104 11.7586 10.0104 11.177H8.0104C8.0104 11.4731 7.94977 11.7357 7.84216 11.9737L9.66457 12.7976ZM10.0104 11.177C10.0104 10.6164 9.88913 10.0579 9.66557 9.55916L7.84053 10.3772C7.94908 10.6194 8.0104 10.8991 8.0104 11.177H10.0104ZM9.66557 9.55916C9.64115 9.50469 9.61545 9.45077 9.58846 9.3975L7.80439 10.3014C7.81688 10.3261 7.82894 10.3514 7.84052 10.3772L9.66557 9.55916ZM9.17702 10.7264L15.4347 7.29694L14.4735 5.54306L8.21583 8.97253L9.17702 10.7264ZM15.4347 7.29694L15.6362 7.18654L14.675 5.43266L14.4735 5.54306L15.4347 7.29694ZM14.5664 7.11762C14.6109 7.15008 14.6562 7.18182 14.7022 7.21281L15.8201 5.55444C15.7947 5.53732 15.7696 5.51969 15.7447 5.50158L14.5664 7.11762ZM14.7022 7.21281C15.3403 7.64302 16.122 7.92907 16.9947 7.92907V5.92907C16.5702 5.92907 16.1719 5.7916 15.8201 5.55443L14.7022 7.21281ZM16.9947 7.92907C19.1938 7.92907 21 6.16664 21 3.96453H19C19 5.03649 18.115 5.92907 16.9947 5.92907V7.92907ZM21 3.96453C21 1.7622 19.1936 0 16.9947 0V2C18.1149 2 19 2.89248 19 3.96453H21ZM16.9947 0C14.7956 0 12.9895 1.76243 12.9895 3.96453H14.9895C14.9895 2.89257 15.8745 2 16.9947 2V0ZM12.9895 3.96453C12.9895 4.47683 13.0916 4.97545 13.2746 5.42856L15.1291 4.67972C15.0392 4.45716 14.9895 4.21232 14.9895 3.96453H12.9895ZM13.2746 5.42857C13.3698 5.66447 13.4878 5.89005 13.6266 6.1004L15.2961 4.99913C15.2321 4.90215 15.1756 4.79493 15.1291 4.67972L13.2746 5.42857ZM13.6266 6.10041C13.6561 6.14511 13.6865 6.18917 13.7179 6.23254L15.3376 5.05925C15.3235 5.03972 15.3096 5.01968 15.2961 4.99912L13.6266 6.10041ZM14.0453 4.76997L13.1645 5.2551L14.1294 7.00695L15.0102 6.52182L14.0453 4.76997ZM13.1645 5.2551L7.79648 8.21175L8.76138 9.9636L14.1294 7.00694L13.1645 5.2551ZM7.79648 8.21175L7.6983 8.26582L8.66319 10.0177L8.76138 9.9636L7.79648 8.21175ZM8.91087 8.45843C8.86869 8.41336 8.82544 8.36934 8.78118 8.32642L7.38874 9.76208C7.40994 9.78264 7.43057 9.80364 7.45062 9.82507L8.91087 8.45843ZM8.78118 8.32642C8.06171 7.62861 7.06904 7.21256 6.00527 7.21256V9.21255C6.54754 9.21255 7.04125 9.42505 7.38874 9.76208L8.78118 8.32642ZM6.00527 7.21256C3.80617 7.21256 2 8.97498 2 11.1771H4C4 10.1051 4.88499 9.21255 6.00527 9.21255V7.21256ZM2 11.1771C2 13.3794 3.8064 15.1416 6.00527 15.1416V13.1416C4.88508 13.1416 4 12.2491 4 11.1771H2ZM6.00527 15.1416C7.06884 15.1416 8.06134 14.7257 8.78078 14.0281L7.38855 12.5923C7.04107 12.9292 6.54744 13.1416 6.00527 13.1416V15.1416ZM8.78078 14.0281C8.82518 13.9851 8.86856 13.941 8.91087 13.8957L7.45063 12.5291C7.43051 12.5506 7.40982 12.5717 7.38855 12.5923L8.78078 14.0281ZM7.70204 14.0904L7.80337 14.1457L8.76078 12.3897L8.65945 12.3345L7.70204 14.0904ZM7.80337 14.1456L12.9914 16.9744L13.9488 15.2184L8.76079 12.3897L7.80337 14.1456ZM6.91251 11.6002L6.80339 11.8155L8.58731 12.7197L8.69642 12.5045L6.91251 11.6002ZM7.0104 11.177C7.0104 11.345 6.97435 11.4782 6.9125 11.6002L8.69642 12.5045C8.89825 12.1063 9.0104 11.6637 9.0104 11.177H7.0104ZM6.91235 10.7534C6.97096 10.8691 7.0104 11.0236 7.0104 11.177H9.0104C9.0104 10.7123 8.89823 10.2478 8.69642 9.84947L6.91235 10.7534ZM6.80367 10.5389L6.91235 10.7534L8.69642 9.84947L8.58774 9.63497L6.80367 10.5389ZM6.7205 10.5084L6.96559 10.7703L8.42583 9.40362L8.18075 9.14175L6.7205 10.5084ZM6.00527 10.2126C6.30481 10.2126 6.56081 10.3378 6.7205 10.5084L8.18075 9.14175C7.64245 8.56658 6.85757 8.21255 6.00527 8.21255V10.2126ZM5 11.1771C5 10.6683 5.42637 10.2126 6.00527 10.2126V8.21255C4.34361 8.21255 3 9.542 3 11.1771H5ZM6.00527 12.1416C5.4264 12.1416 5 11.686 5 11.1771H3C3 12.8123 4.34376 14.1416 6.00527 14.1416V12.1416ZM6.7205 11.8458C6.56081 12.0164 6.30481 12.1416 6.00527 12.1416V14.1416C6.85757 14.1416 7.64245 13.7876 8.18075 13.2124L6.7205 11.8458ZM6.96522 11.5843L6.7205 11.8458L8.18075 13.2124L8.42547 12.9509L6.96522 11.5843ZM16.3708 4.78096L16.1475 4.47261L14.5278 5.64589L14.7511 5.95424L16.3708 4.78096ZM16.1475 4.47261C16.0572 4.34803 15.9895 4.16097 15.9895 3.96453H13.9895C13.9895 4.58398 14.1913 5.18136 14.5278 5.64589L16.1475 4.47261ZM15.9895 3.96453C15.9895 3.4557 16.4158 3 16.9947 3V1C15.3331 1 13.9895 2.32944 13.9895 3.96453H15.9895ZM16.9947 3C17.5736 3 18 3.45567 18 3.96453H20C20 2.32929 18.6562 1 16.9947 1V3ZM18 3.96453C18 4.47337 17.5736 4.92907 16.9947 4.92907V6.92907C18.6564 6.92907 20 5.59962 20 3.96453H18ZM16.9947 4.92907C16.7805 4.92907 16.5572 4.85639 16.3339 4.69356L15.1556 6.3096C15.6718 6.68601 16.2998 6.92907 16.9947 6.92907V4.92907ZM16.3339 4.69356L16.1501 4.55958L14.9718 6.17562L15.1556 6.3096L16.3339 4.69356ZM16.9947 3.88514C17.0786 3.88514 17.1029 3.94101 17.1029 3.96481H19.1029C19.1029 2.81788 18.1645 1.88514 16.9947 1.88514V3.88514ZM16.8864 3.96481C16.8864 3.94101 16.9107 3.88514 16.9947 3.88514V1.88514C15.8248 1.88514 14.8864 2.81788 14.8864 3.96481H16.8864ZM16.9947 4.04447C16.9107 4.04447 16.8864 3.98861 16.8864 3.96481H14.8864C14.8864 5.11174 15.8248 6.04447 16.9947 6.04447V4.04447ZM17.1029 3.96481C17.1029 3.98861 17.0786 4.04447 16.9947 4.04447V6.04447C18.1645 6.04447 19.1029 5.11174 19.1029 3.96481H17.1029ZM16.9947 2.88514C17.6216 2.88514 18.1029 3.37945 18.1029 3.96481H20.1029C20.1029 2.24923 18.7003 0.885145 16.9947 0.885145V2.88514ZM15.8864 3.96481C15.8864 3.37945 16.3678 2.88514 16.9947 2.88514V0.885145C15.289 0.885145 13.8864 2.24923 13.8864 3.96481H15.8864ZM16.9947 5.04447C16.3678 5.04447 15.8864 4.55017 15.8864 3.96481H13.8864C13.8864 5.68039 15.289 7.04447 16.9947 7.04447V5.04447ZM18.1029 3.96481C18.1029 4.55017 17.6216 5.04447 16.9947 5.04447V7.04447C18.7003 7.04447 20.1029 5.68039 20.1029 3.96481H18.1029ZM6.00511 11.2567C5.92116 11.2567 5.89687 11.2008 5.89687 11.177H3.89687C3.89687 12.324 4.83525 13.2567 6.00511 13.2567V11.2567ZM6.11334 11.177C6.11334 11.2008 6.08905 11.2567 6.00511 11.2567V13.2567C7.17496 13.2567 8.11334 12.324 8.11334 11.177H6.11334ZM6.00511 11.0974C6.08905 11.0974 6.11334 11.1533 6.11334 11.177H8.11334C8.11334 10.0301 7.17496 9.09738 6.00511 9.09738V11.0974ZM5.89687 11.177C5.89687 11.1533 5.92116 11.0974 6.00511 11.0974V9.09738C4.83525 9.09738 3.89687 10.0301 3.89687 11.177H5.89687ZM6.00511 12.2567C5.3782 12.2567 4.89687 11.7624 4.89687 11.177H2.89687C2.89687 12.8926 4.29945 14.2567 6.00511 14.2567V12.2567ZM7.11334 11.177C7.11334 11.7624 6.63201 12.2567 6.00511 12.2567V14.2567C7.71076 14.2567 9.11334 12.8926 9.11334 11.177H7.11334ZM6.00511 10.0974C6.63201 10.0974 7.11334 10.5917 7.11334 11.177H9.11334C9.11334 9.46147 7.71076 8.09738 6.00511 8.09738V10.0974ZM4.89687 11.177C4.89687 10.5917 5.3782 10.0974 6.00511 10.0974V8.09738C4.29945 8.09738 2.89687 9.46147 2.89687 11.177H4.89687ZM16.9947 18.1151C16.9107 18.1151 16.8864 18.0592 16.8864 18.0354H14.8864C14.8864 19.1823 15.8248 20.1151 16.9947 20.1151V18.1151ZM17.1029 18.0354C17.1029 18.0592 17.0786 18.1151 16.9947 18.1151V20.1151C18.1645 20.1151 19.1029 19.1823 19.1029 18.0354H17.1029ZM16.9947 17.9557C17.0786 17.9557 17.1029 18.0116 17.1029 18.0354H19.1029C19.1029 16.8885 18.1645 15.9557 16.9947 15.9557V17.9557ZM16.8864 18.0354C16.8864 18.0116 16.9107 17.9557 16.9947 17.9557V15.9557C15.8248 15.9557 14.8864 16.8885 14.8864 18.0354H16.8864ZM16.9947 19.1151C16.3678 19.1151 15.8864 18.6208 15.8864 18.0354H13.8864C13.8864 19.751 15.289 21.1151 16.9947 21.1151V19.1151ZM18.1029 18.0354C18.1029 18.6208 17.6216 19.1151 16.9947 19.1151V21.1151C18.7003 21.1151 20.1029 19.751 20.1029 18.0354H18.1029ZM16.9947 16.9557C17.6216 16.9557 18.1029 17.45 18.1029 18.0354H20.1029C20.1029 16.3198 18.7003 14.9557 16.9947 14.9557V16.9557ZM15.8864 18.0354C15.8864 17.45 16.3678 16.9557 16.9947 16.9557V14.9557C15.289 14.9557 13.8864 16.3198 13.8864 18.0354H15.8864Z" fill="#ACC8FF" mask="url(#path-1-inside-1_1555_22094)"/>
</g>
</g>
</svg>
